<?xml version="1.0"?>
<svg xmlns="http://www.w3.org/2000/svg" xmlns:xlink="http://www.w3.org/1999/xlink" xmlns:svgjs="http://svgjs.com/svgjs" version="1.1" width="512" height="512" x="0" y="0" viewBox="0 0 512 512" style="enable-background:new 0 0 512 512" xml:space="preserve"><g>
<g xmlns="http://www.w3.org/2000/svg">
	<g>
		<g>
			<path d="M365.714,502.857c0,5.049,4.093,9.143,9.143,9.143H448c5.049,0,9.143-4.093,9.143-9.143v-27.429h-91.429V502.857z" fill="#ffffff" data-original="#000000" style=""/>
			<circle cx="384" cy="292.571" r="9.143" fill="#ffffff" data-original="#000000" style=""/>
			<circle cx="292.571" cy="292.571" r="9.143" fill="#ffffff" data-original="#000000" style=""/>
			<path d="M45.714,502.857c0,5.049,4.093,9.143,9.143,9.143H128c5.049,0,9.143-4.093,9.143-9.143v-27.429H45.714V502.857z" fill="#ffffff" data-original="#000000" style=""/>
			<path d="M155.429,91.429c-8.578,0.019-16.644,4.086-21.76,10.971c12.852,9.8,30.668,9.8,43.52,0     C172.073,95.514,164.007,91.447,155.429,91.429z" fill="#ffffff" data-original="#000000" style=""/>
			<path d="M155.429,36.571c-20.198,0-36.571,16.374-36.571,36.571c0.007,5.076,1.082,10.095,3.154,14.729     c6.456-6.997,14.947-11.788,24.274-13.696V64c0-5.049,4.093-9.143,9.143-9.143s9.143,4.093,9.143,9.143v10.176     c9.329,1.913,17.821,6.711,24.274,13.714c2.075-4.64,3.149-9.665,3.154-14.747C192,52.945,175.626,36.571,155.429,36.571z" fill="#ffffff" data-original="#000000" style=""/>
			<path d="M413.842,7.808c-0.688-4.474-4.525-7.784-9.051-7.808H98.651c-4.66,0-8.575,3.505-9.088,8.137L65.07,228.571h381.477     L413.842,7.808z M288.065,50.992c8.761-19.908,28.471-32.744,50.221-32.707c21.75-0.038,41.461,12.799,50.221,32.707     c8.761,19.907,4.91,43.113-9.81,59.124c-0.232,0.284-0.479,0.556-0.741,0.814c-10.319,10.896-24.664,17.068-39.671,17.068     c-15.006,0-29.352-6.172-39.671-17.068c-0.261-0.258-0.508-0.529-0.741-0.814C283.154,94.105,279.304,70.9,288.065,50.992z      M118.126,204.617c-0.446,1.09-1.098,2.083-1.92,2.926c-1.704,1.754-4.046,2.744-6.491,2.744s-4.787-0.99-6.491-2.744     c-1.732-1.674-2.692-3.991-2.651-6.4c0.034-2.421,0.981-4.739,2.651-6.491c0.874-0.826,1.898-1.478,3.017-1.92     c1.666-0.735,3.521-0.927,5.303-0.549c0.573,0.1,1.128,0.284,1.646,0.549c0.583,0.2,1.136,0.477,1.646,0.823     c0.479,0.337,0.937,0.704,1.371,1.097c1.671,1.752,2.618,4.071,2.651,6.491C118.843,202.338,118.594,203.518,118.126,204.617z      M118.126,168.046c-0.446,1.09-1.098,2.083-1.92,2.926c-1.704,1.754-4.046,2.744-6.491,2.744s-4.787-0.99-6.491-2.744     c-1.732-1.674-2.692-3.991-2.651-6.4c0.034-2.421,0.981-4.739,2.651-6.491c0.874-0.826,1.898-1.478,3.017-1.92     c1.666-0.735,3.521-0.927,5.303-0.549c0.573,0.1,1.128,0.284,1.646,0.549c0.583,0.2,1.136,0.477,1.646,0.823     c0.479,0.338,0.937,0.704,1.371,1.097c1.671,1.752,2.618,4.071,2.651,6.491C118.843,165.766,118.594,166.947,118.126,168.046z      M154.697,204.617c-0.446,1.09-1.098,2.083-1.92,2.926c-1.704,1.754-4.046,2.744-6.491,2.744c-2.446,0-4.787-0.99-6.491-2.744     c-1.732-1.674-2.692-3.991-2.651-6.4c0.034-2.421,0.981-4.739,2.651-6.491c0.874-0.826,1.898-1.478,3.017-1.92     c1.666-0.735,3.521-0.927,5.303-0.549c0.573,0.1,1.128,0.284,1.646,0.549c0.583,0.2,1.136,0.477,1.646,0.823     c0.479,0.337,0.937,0.704,1.371,1.097c1.671,1.752,2.618,4.071,2.651,6.491C155.414,202.338,155.166,203.518,154.697,204.617z      M154.697,168.046c-0.446,1.09-1.098,2.083-1.92,2.926c-1.704,1.754-4.046,2.744-6.491,2.744c-2.446,0-4.787-0.99-6.491-2.744     c-1.732-1.674-2.692-3.991-2.651-6.4c0.034-2.421,0.981-4.739,2.651-6.491c0.874-0.826,1.898-1.478,3.017-1.92     c1.666-0.735,3.521-0.927,5.303-0.549c0.573,0.1,1.128,0.284,1.646,0.549c0.583,0.2,1.136,0.477,1.646,0.823     c0.479,0.338,0.937,0.704,1.371,1.097c1.671,1.752,2.618,4.071,2.651,6.491C155.414,165.766,155.166,166.947,154.697,168.046z      M191.269,204.617c-0.446,1.09-1.098,2.083-1.92,2.926c-1.704,1.754-4.046,2.744-6.491,2.744c-2.446,0-4.787-0.99-6.491-2.744     c-1.732-1.674-2.692-3.991-2.651-6.4c0.034-2.421,0.981-4.739,2.651-6.491c0.874-0.826,1.898-1.478,3.017-1.92     c1.666-0.735,3.521-0.927,5.303-0.549c0.573,0.1,1.128,0.284,1.646,0.549c0.583,0.2,1.136,0.477,1.646,0.823     c0.479,0.337,0.937,0.704,1.371,1.097c1.671,1.752,2.618,4.071,2.651,6.491C191.986,202.338,191.737,203.518,191.269,204.617z      M191.269,168.046c-0.446,1.09-1.098,2.083-1.92,2.926c-1.704,1.754-4.046,2.744-6.491,2.744c-2.446,0-4.787-0.99-6.491-2.744     c-1.732-1.674-2.692-3.991-2.651-6.4c0.034-2.421,0.981-4.739,2.651-6.491c0.874-0.826,1.898-1.478,3.017-1.92     c1.666-0.735,3.521-0.927,5.303-0.549c0.573,0.1,1.128,0.284,1.646,0.549c0.583,0.2,1.136,0.477,1.646,0.823     c0.479,0.338,0.937,0.704,1.371,1.097c1.671,1.752,2.618,4.071,2.651,6.491C191.986,165.766,191.737,166.947,191.269,168.046z      M195.84,110.117c-0.232,0.284-0.479,0.556-0.741,0.814c-10.319,10.896-24.664,17.068-39.671,17.068s-29.352-6.172-39.671-17.068     c-0.261-0.258-0.508-0.529-0.741-0.814c-20.077-21.87-19.112-55.744,2.178-76.436c21.29-20.692,55.177-20.692,76.467,0     C214.952,54.372,215.917,88.246,195.84,110.117z M227.84,204.617c-0.446,1.09-1.098,2.083-1.92,2.926     c-1.704,1.754-4.046,2.744-6.491,2.744c-2.446,0-4.787-0.99-6.491-2.744c-1.732-1.674-2.692-3.991-2.651-6.4     c0.034-2.421,0.981-4.739,2.651-6.491c0.874-0.826,1.898-1.478,3.017-1.92c1.666-0.735,3.521-0.927,5.303-0.549     c0.573,0.1,1.128,0.284,1.646,0.549c0.583,0.2,1.136,0.477,1.646,0.823c0.479,0.337,0.937,0.704,1.371,1.097     c1.671,1.752,2.618,4.071,2.651,6.491C228.557,202.338,228.308,203.518,227.84,204.617z M227.84,168.046     c-0.446,1.09-1.098,2.083-1.92,2.926c-1.704,1.754-4.046,2.744-6.491,2.744c-2.446,0-4.787-0.99-6.491-2.744     c-1.732-1.674-2.692-3.991-2.651-6.4c0.034-2.421,0.981-4.739,2.651-6.491c0.874-0.826,1.898-1.478,3.017-1.92     c1.666-0.735,3.521-0.927,5.303-0.549c0.573,0.1,1.128,0.284,1.646,0.549c0.583,0.2,1.136,0.477,1.646,0.823     c0.479,0.338,0.937,0.704,1.371,1.097c1.671,1.752,2.618,4.071,2.651,6.491C228.557,165.766,228.308,166.947,227.84,168.046z      M356.571,210.286h-73.143c-5.049,0-9.143-4.093-9.143-9.143c0-5.049,4.093-9.143,9.143-9.143h73.143     c5.049,0,9.143,4.093,9.143,9.143C365.714,206.192,361.621,210.286,356.571,210.286z M402.286,173.714H283.429     c-5.049,0-9.143-4.093-9.143-9.143c0-5.049,4.093-9.143,9.143-9.143h118.857c5.049,0,9.143,4.093,9.143,9.143     C411.429,169.621,407.335,173.714,402.286,173.714z" fill="#ffffff" data-original="#000000" style=""/>
			<path d="M338.286,91.429c-8.578,0.019-16.644,4.086-21.76,10.971c12.852,9.8,30.668,9.8,43.52,0     C354.93,95.514,346.864,91.447,338.286,91.429z" fill="#ffffff" data-original="#000000" style=""/>
			<path d="M451.895,246.857H60.105L0.576,348.91l23.351,101.147c0.958,4.147,4.649,7.084,8.905,7.086h446.336     c4.256-0.002,7.948-2.939,8.905-7.086l23.351-101.147L451.895,246.857z M384,265.143c15.148,0,27.429,12.28,27.429,27.429     S399.148,320,384,320s-27.429-12.28-27.429-27.429S368.852,265.143,384,265.143z M292.571,265.143     c15.148,0,27.429,12.28,27.429,27.429S307.72,320,292.571,320c-15.148,0-27.429-12.28-27.429-27.429     S277.423,265.143,292.571,265.143z M201.143,265.143c15.148,0,27.429,12.28,27.429,27.429S216.291,320,201.143,320     s-27.429-12.28-27.429-27.429S185.995,265.143,201.143,265.143z M109.714,265.143c15.148,0,27.429,12.28,27.429,27.429     S124.863,320,109.714,320s-27.429-12.28-27.429-27.429S94.566,265.143,109.714,265.143z M475.429,356.571H36.571     c-5.049,0-9.143-4.093-9.143-9.143s4.093-9.143,9.143-9.143h438.857c5.049,0,9.143,4.093,9.143,9.143     S480.478,356.571,475.429,356.571z" fill="#ffffff" data-original="#000000" style=""/>
			<path d="M329.143,74.176V64c0-5.049,4.093-9.143,9.143-9.143c5.049,0,9.143,4.093,9.143,9.143v10.176     c9.329,1.913,17.821,6.711,24.274,13.714c2.075-4.64,3.149-9.665,3.154-14.747c0-20.198-16.374-36.571-36.571-36.571     c-20.198,0-36.571,16.374-36.571,36.571c0.007,5.076,1.082,10.095,3.154,14.729C311.324,80.875,319.816,76.084,329.143,74.176z" fill="#ffffff" data-original="#000000" style=""/>
			<circle cx="109.714" cy="292.571" r="9.143" fill="#ffffff" data-original="#000000" style=""/>
			<circle cx="201.143" cy="292.571" r="9.143" fill="#ffffff" data-original="#000000" style=""/>
		</g>
	</g>
</g>
<g xmlns="http://www.w3.org/2000/svg">
</g>
<g xmlns="http://www.w3.org/2000/svg">
</g>
<g xmlns="http://www.w3.org/2000/svg">
</g>
<g xmlns="http://www.w3.org/2000/svg">
</g>
<g xmlns="http://www.w3.org/2000/svg">
</g>
<g xmlns="http://www.w3.org/2000/svg">
</g>
<g xmlns="http://www.w3.org/2000/svg">
</g>
<g xmlns="http://www.w3.org/2000/svg">
</g>
<g xmlns="http://www.w3.org/2000/svg">
</g>
<g xmlns="http://www.w3.org/2000/svg">
</g>
<g xmlns="http://www.w3.org/2000/svg">
</g>
<g xmlns="http://www.w3.org/2000/svg">
</g>
<g xmlns="http://www.w3.org/2000/svg">
</g>
<g xmlns="http://www.w3.org/2000/svg">
</g>
<g xmlns="http://www.w3.org/2000/svg">
</g>
</g></svg>
