<?xml version="1.0" encoding="iso-8859-1"?>
<!-- Generator: Adobe Illustrator 19.0.0, SVG Export Plug-In . SVG Version: 6.00 Build 0)  -->
<svg version="1.1" id="Capa_1" xmlns="http://www.w3.org/2000/svg" xmlns:xlink="http://www.w3.org/1999/xlink" x="0px" y="0px"
	 viewBox="0 0 468.293 468.293" style="enable-background:new 0 0 468.293 468.293;" xml:space="preserve">
<path style="fill:#647989;" d="M175.355,382.298l5.742,80.252c0,3.158-2.527,5.742-5.742,5.742l-137.814,0
	c-4.307,0-7.063-4.537-5.111-8.384l8.212-15.791l67.012-98.857L175.355,382.298z"/>
<path style="fill:#3B566A;" d="M276.735,143.529l-60.525,60.525c-4.485,4.485-4.485,11.757,0,16.242
	c4.485,4.485,11.757,4.485,16.242,0l60.525-60.525c4.485-4.485,4.485-11.757,0-16.242
	C288.492,139.044,281.22,139.044,276.735,143.529z"/>
<path style="fill:#E0E5E8;" d="M99.169,87.013l250.322,250.322c-9.895,9.895-20.67,18.391-32.171,25.436
	c-68.28,42.273-158.939,33.777-218.152-25.436S31.459,187.463,73.732,119.184C80.778,107.683,89.274,96.908,99.169,87.013z"/>
<path style="fill:#D4D5DB;" d="M115.319,346.24C56.106,287.027,47.61,196.368,89.883,128.089
	c6.18-10.088,13.541-19.576,21.918-28.443L99.169,87.013c-9.895,9.895-18.391,20.67-25.436,32.171
	c-42.274,68.279-33.778,158.938,25.436,218.152c14.629,14.629,31.187,26.135,48.843,34.572
	C136.4,364.775,125.379,356.3,115.319,346.24z"/>
<path style="fill:#647989;" d="M99.169,87.013l250.322,250.322c-9.895,9.895-20.67,18.391-32.171,25.436L73.732,119.184
	C80.778,107.683,89.274,96.908,99.169,87.013z"/>
<ellipse style="fill:#304859;" cx="292.964" cy="143.532" rx="28.709" ry="28.709"/>
<path style="fill:#D4D5DB;" d="M181.097,444.118v18.433c0,3.158-2.527,5.742-5.742,5.742l-137.814,0
	c-4.307,0-7.063-4.537-5.111-8.384l8.212-15.791L181.097,444.118z"/>
<g>
	<path style="fill:#1A76A1;" d="M324.533,0c-4.758,0-8.612,3.854-8.612,8.612c-0.002,4.756,3.854,8.612,8.612,8.612
		c52.244,0.002,94.745,42.507,94.743,94.751c-0.002,4.756,3.854,8.612,8.612,8.612c2.379,0,4.532-0.964,6.091-2.522
		c1.558-1.558,2.522-3.711,2.522-6.091c0.002-29.864-11.656-57.974-32.826-79.144C382.507,11.66,354.399,0,324.533,0z"/>
	<path style="fill:#1A76A1;" d="M324.531,40.198c-4.758,0-8.612,3.854-8.612,8.612c-0.002,4.756,3.856,8.614,8.612,8.612
		c30.078,0.002,54.55,24.473,54.55,54.554c-0.002,4.756,3.856,8.614,8.612,8.612c2.379,0,4.532-0.964,6.091-2.522
		c1.558-1.558,2.522-3.711,2.522-6.091C396.308,72.397,364.108,40.198,324.531,40.198z"/>
	<path style="fill:#1A76A1;" d="M315.917,89.008c-0.002,4.756,3.856,8.614,8.612,8.612c7.915,0,14.356,6.442,14.356,14.356
		c-0.002,4.756,3.856,8.614,8.612,8.612c2.379,0,4.532-0.964,6.091-2.522c1.558-1.558,2.522-3.711,2.522-6.091
		c0-17.415-14.166-31.581-31.581-31.581C319.771,80.395,315.917,84.249,315.917,89.008z"/>
</g>
<g>
</g>
<g>
</g>
<g>
</g>
<g>
</g>
<g>
</g>
<g>
</g>
<g>
</g>
<g>
</g>
<g>
</g>
<g>
</g>
<g>
</g>
<g>
</g>
<g>
</g>
<g>
</g>
<g>
</g>
</svg>
